<svg width="280" height="79" viewBox="0 0 280 79" fill="none" xmlns="http://www.w3.org/2000/svg">
<g clip-path="url(#clip0_631_894)">
<rect x="-1" width="281" height="79" fill="#1282A2"/>
<path d="M341.837 112.746C335.663 126.543 324.778 137.692 311.132 144.196C297.486 150.699 281.971 152.132 267.365 148.238C252.759 144.344 240.017 135.377 231.42 122.944C222.823 110.511 218.933 95.4227 220.447 80.3826C221.96 65.3424 228.779 51.3325 239.682 40.862C250.585 30.3914 264.859 24.1443 279.948 23.2394C295.037 22.3345 309.955 26.8309 322.031 35.9234C334.107 45.0159 342.551 58.1105 345.852 72.862L324.392 77.6635C322.232 68.0102 316.706 59.4411 308.803 53.4909C300.901 47.5408 291.138 44.5983 281.264 45.1905C271.39 45.7826 262.049 49.8708 254.914 56.7227C247.78 63.5746 243.317 72.7427 242.327 82.585C241.336 92.4273 243.881 102.301 249.507 110.437C255.133 118.574 263.472 124.441 273.03 126.99C282.588 129.538 292.741 128.6 301.671 124.344C310.601 120.089 317.724 112.793 321.764 103.763L341.837 112.746Z" fill="#0F7694"/>
<circle opacity="0.7" cx="239" cy="37" r="15" fill="#F5CB5C" fill-opacity="0.5"/>
</g>
<defs>
<clipPath id="clip0_631_894">
<rect width="280" height="79" fill="white"/>
</clipPath>
</defs>
</svg>
